<svg width="117" height="31" viewBox="0 0 117 31" fill="none" xmlns="http://www.w3.org/2000/svg">
<path d="M13.0649 28.664C19.7292 28.664 25.1317 23.2615 25.1317 16.5971C25.1317 9.93279 19.7292 4.53027 13.0649 4.53027C6.40056 4.53027 0.998047 9.93279 0.998047 16.5971C0.998047 23.2615 6.40056 28.664 13.0649 28.664Z" fill="#FF4644"/>
<path d="M42.448 24.5004L41.3318 21.6647H34.6347L33.5185 24.5004H29.3555L35.7811 9.32632C35.9017 9.02465 36.2336 8.81348 36.5352 8.81348H39.4313C39.7933 8.81348 40.0648 8.99448 40.1855 9.32632L46.6412 24.5004H42.448ZM38.0134 13.1575L35.9922 18.3161H40.0346L38.0134 13.1575Z" fill="white"/>
<path d="M69.0546 17.1102V24.4709H65.2837V17.9247C65.2837 16.5973 64.4089 15.7526 63.2927 15.7526C61.905 15.7526 60.9698 16.7481 60.9698 18.709V24.4709H57.1688V17.9247C57.1688 16.5973 56.2939 15.7526 55.1476 15.7526C53.7901 15.7526 52.885 16.7481 52.885 18.709V24.4709H49.084V13.4599C49.084 13.0678 49.446 12.7058 49.8382 12.7058H52.885V13.7918C53.6694 12.8868 54.8459 12.3438 56.3844 12.3438C58.0135 12.3438 59.4615 13.0678 60.276 14.3348C61.2112 13.1281 62.6592 12.3438 64.4692 12.3438C67.0334 12.3739 69.0546 14.2744 69.0546 17.1102Z" fill="white"/>
<path d="M84.711 24.5002H80.9401V23.5349C80.0351 24.3494 78.7983 24.8019 77.2598 24.8019C74.0922 24.8019 71.4375 22.298 71.4375 18.5875C71.4375 14.9071 74.0922 12.373 77.2598 12.373C78.7983 12.373 80.0351 12.8557 80.9401 13.6401V12.7049H84.7412V24.5002H84.711ZM80.9401 18.6176C80.9401 16.8076 79.5826 15.5708 78.0441 15.5708C76.4151 15.5708 75.1782 16.8076 75.1782 18.6176C75.1782 20.4277 76.3849 21.6645 78.0441 21.6645C79.5826 21.6344 80.9401 20.4277 80.9401 18.6176Z" fill="white"/>
<path d="M100.579 24.5001H96.778V23.5348C95.873 24.3493 94.6362 24.8018 93.0976 24.8018C89.9301 24.8018 87.2754 22.2979 87.2754 18.5874C87.2754 14.907 89.9301 12.373 93.0976 12.373C94.6362 12.373 95.873 12.8556 96.778 13.64V7.63672H100.579V24.5001ZM96.778 18.6176C96.778 16.8075 95.4205 15.5707 93.882 15.5707C92.253 15.5707 91.0161 16.8075 91.0161 18.6176C91.0161 20.4276 92.2228 21.6644 93.882 21.6644C95.3903 21.6343 96.778 20.4276 96.778 18.6176Z" fill="white"/>
<path d="M116.237 18.6179C116.237 22.3284 113.251 24.8323 109.721 24.8323C106.131 24.8323 103.145 22.3586 103.145 18.6179C103.145 14.9375 106.101 12.4336 109.721 12.4336C113.251 12.4336 116.237 14.9073 116.237 18.6179ZM112.587 18.6179C112.587 16.8078 111.199 15.571 109.721 15.571C108.182 15.571 106.795 16.7777 106.795 18.6179C106.795 20.458 108.182 21.6647 109.721 21.6647C111.169 21.6346 112.587 20.458 112.587 18.6179Z" fill="white"/>
<path d="M6.06511 29.3572C6.03494 29.327 6.00478 29.327 5.97461 29.2969C6.03494 29.327 6.06511 29.327 6.06511 29.3572Z" fill="#5637E3"/>
<path d="M3.32118 25.7068C3.32118 25.6767 3.29102 25.6767 3.29102 25.6465C3.29102 25.6767 3.32118 25.6767 3.32118 25.7068Z" fill="#5637E3"/>
<path d="M35.7501 0.00488281C35.2372 0.276387 34.9054 0.759061 34.3926 1.03056C34.3926 1.0004 34.3926 0.970231 34.3926 0.940064C34.2417 1.03056 34.2719 1.0909 34.2116 1.1814C34.1814 1.24173 34.0607 1.30207 34.0004 1.30207C33.9099 1.30207 33.9702 1.30207 33.9401 1.24173C33.9401 1.2719 33.035 1.90541 32.9144 1.99591C32.7334 2.14675 32.5825 2.26742 32.4015 2.41825C32.2507 2.53892 32.0999 2.78026 31.949 2.87076C31.8585 2.93109 31.7379 2.93109 31.6172 3.0216C31.4664 3.1121 31.3457 3.23276 31.1948 3.32327C31.0742 3.41377 30.9233 3.44393 30.8328 3.50427C30.6518 3.6551 30.6217 3.86627 30.5312 4.01711C30.3803 4.19811 30.1088 4.34895 29.9278 4.46962C29.7167 4.62045 29.5357 4.77129 29.3547 4.95229C28.9625 5.28413 28.5401 5.61597 28.148 5.94781C27.3938 6.61148 26.6396 7.30533 25.9156 7.99917C25.4933 8.39134 25.0709 8.81368 24.6184 9.20585C24.4072 9.38686 24.2262 9.56786 24.0151 9.77903C23.8944 9.8997 23.8039 9.9902 23.7134 10.1109C23.6531 10.2315 23.5626 10.3824 23.5022 10.503C23.4419 8.93435 22.2654 7.36566 20.6062 7.30533C20.6364 7.24499 20.6364 7.21482 20.6665 7.15449C19.1883 7.00365 17.7705 7.21482 16.3828 7.81817C15.1158 8.36118 13.9694 9.17569 13.0041 10.141C12.8231 9.50753 12.5817 8.81368 12.2197 8.24051C12.1292 8.11984 12.0387 7.969 11.9482 7.84833C11.9181 7.81817 11.7672 7.54666 11.7974 7.72767C11.7069 7.24499 11.3147 6.67182 10.9829 6.33998C11.013 6.33998 11.0432 6.37015 11.0734 6.40031C10.8924 6.06847 10.5907 5.94781 10.3192 5.70647C10.1985 5.61597 10.108 5.43496 9.98736 5.37463C9.8667 5.3143 9.71586 5.25396 9.59519 5.19363C9.41419 5.07296 9.23319 5.01262 9.02202 4.95229C8.93152 4.92212 8.84101 4.89196 8.75051 4.89196C8.69018 4.89196 8.53934 4.92212 8.47901 4.89196C8.41867 4.86179 8.38851 4.80146 8.35834 4.77129C8.26784 4.74112 8.14717 4.74112 8.05667 4.74112C7.8455 4.71095 7.63433 4.74112 7.42316 4.74112C6.63881 4.80146 5.8243 5.07296 5.16063 5.52547C4.82879 5.7668 4.55728 6.09864 4.25561 6.40031C3.92377 6.73215 3.59193 7.09416 3.41093 7.54666C3.32043 7.75783 3.29026 7.90867 3.19976 8.08967C3.07909 8.27067 2.98859 8.45168 2.89809 8.63268C2.68692 9.08519 2.50592 9.56786 2.44558 10.0505C2.44558 10.0204 2.44558 9.9902 2.44558 9.96003C2.29475 10.5332 2.17408 11.1365 2.11375 11.7097C2.08358 11.9511 2.08358 12.1924 2.11375 12.4036C2.11375 12.4337 2.14391 12.5242 2.14391 12.5544C2.11375 12.6449 2.11375 12.6147 2.05341 12.7052C1.96291 12.8259 1.90258 12.8862 1.84224 13.0371C1.75174 13.2482 1.69141 13.4896 1.69141 13.7008C1.69141 13.9723 1.72157 14.2136 1.72157 14.4851C1.72157 15.0583 1.69141 15.6315 1.78191 16.2046C1.81207 16.3856 1.75174 16.5063 1.75174 16.7175C1.75174 16.8683 1.75174 17.0191 1.72157 17.17C1.72157 17.2303 1.69141 17.17 1.69141 17.2605C1.69141 17.3208 1.72157 17.4113 1.72157 17.4716C1.75174 17.6225 1.78191 17.7733 1.81207 17.9242C1.87241 18.256 1.93274 18.5878 1.99308 18.9197C2.23441 20.247 2.47575 21.5744 2.74726 22.9017C2.89809 23.6257 3.04893 24.3497 3.22993 25.1039C3.2601 25.2849 3.29026 25.4659 3.3506 25.6469C3.41093 25.7978 3.50143 25.8883 3.65227 25.9788C3.92377 26.1598 4.40645 26.5218 4.37628 26.4614C4.67795 26.8838 4.91929 27.9095 4.85895 27.8491C5.22096 28.1206 5.34163 28.6335 5.7338 28.9352C5.8243 28.9955 5.94497 29.0257 6.0053 29.086C6.03547 29.1162 5.97514 29.1463 6.03547 29.1765C6.12597 29.2368 6.27681 29.4782 6.15614 29.4178C7.69466 30.5642 9.65553 30.5038 11.2242 29.4178C12.7024 28.3921 13.6678 26.7933 14.6633 25.3453C15.3269 24.3799 16.0208 23.4447 16.7448 22.5096C16.7448 22.5699 16.7448 22.6302 16.7146 22.6906C16.8353 22.4191 16.9258 22.1476 17.0465 21.8459C17.0766 21.876 17.0766 21.9364 17.0766 21.9967C17.8911 21.2425 18.223 20.1565 18.8867 19.2817C18.947 19.342 18.947 19.4627 19.0375 19.4627C19.128 19.4627 19.1582 19.2515 19.1883 19.161C19.2788 18.98 19.3995 18.8593 19.5503 18.7387C19.852 18.4973 20.0028 18.2862 19.7917 17.9242C19.8822 17.9242 19.9727 18.0147 20.0028 18.1052C20.7872 16.6571 21.6017 15.2393 22.5067 13.8818C22.7179 13.5801 22.8989 13.2784 23.1101 12.9767C23.2006 12.8259 23.3212 12.6751 23.4117 12.4941C23.5022 12.3131 23.5022 12.1019 23.5324 11.8907C23.5626 11.6494 23.5626 11.4986 23.7134 11.3176C23.8341 11.1667 23.9547 11.046 24.0754 10.8952C24.3469 10.5935 24.6184 10.2919 24.9201 9.9902C24.9201 10.0505 25.1313 9.83936 25.1313 9.86953C25.5838 9.77903 25.8553 9.32652 26.0966 8.99468C26.2173 8.84385 26.3078 8.69301 26.4586 8.60251C26.5189 8.57234 26.6396 8.54218 26.6698 8.51201C26.7603 8.39134 26.6698 8.27067 26.5491 8.24051C27.3636 7.42599 28.1781 6.64165 29.0228 5.8573C29.4452 5.46513 29.8675 5.07296 30.2597 4.68079C30.4708 4.49978 30.682 4.28861 30.863 4.10761C30.9837 3.98694 31.2854 3.5646 31.4664 3.77577C32.0999 3.05176 32.8239 2.41825 33.5781 1.84508C33.9702 1.54341 34.3624 1.2719 34.7244 1.0004C34.8451 0.909896 35.8406 0.155718 35.8406 0.155718C35.7501 0.00488281 35.6898 0.0652171 35.6898 0.0652171C35.6898 0.0350499 35.7199 0.0350499 35.7501 0.00488281C35.1769 0.276387 35.5691 0.125551 35.7501 0.00488281ZM19.8218 8.0595C20.7269 8.18017 21.5715 8.54218 22.2955 9.11535C22.4766 9.26619 22.6274 9.38686 22.7481 9.62819C22.8386 9.83936 22.8989 10.0505 22.9291 10.2617C22.9592 10.4729 22.9592 10.684 22.9291 10.8952C22.9291 10.9857 22.9291 11.1064 22.8687 11.1969C22.8084 11.3176 22.6576 11.4081 22.5671 11.4986C22.1749 11.8304 21.7224 12.1321 21.3302 12.4337C21.119 12.5846 20.938 12.7656 20.757 12.9164C20.6665 13.0069 20.576 13.0974 20.4855 13.2181C20.4252 13.2784 20.3649 13.4293 20.3045 13.3086C20.1537 13.6404 19.9123 13.9421 19.7012 14.2136C19.5805 14.3343 19.49 14.4549 19.3693 14.5756C19.2487 14.6661 19.0677 14.7868 19.0073 14.9074C18.9168 15.0583 18.947 15.2694 18.8867 15.4504C18.8263 15.5711 18.7057 15.6315 18.585 15.6918C18.3738 15.8426 18.1928 15.9935 18.0118 16.1443C16.594 17.2605 15.4174 18.5878 14.0599 19.7945C12.8532 20.8504 11.194 21.8157 9.62536 20.9409C9.35386 20.79 9.08235 20.5487 8.93152 20.247C8.78068 19.9755 8.81085 19.6437 8.84101 19.342C8.93152 18.5275 9.38402 17.8035 9.74603 17.1096C10.6209 15.4806 12.8231 12.4337 12.7627 12.5544C12.9136 12.3432 13.0946 12.1622 13.3057 11.9812C13.3057 12.1019 13.3661 12.1924 13.3661 12.3131C13.3661 12.3432 13.3359 12.3432 13.3359 12.3432C13.3057 12.5242 13.3962 12.6449 13.3661 12.7957C13.3661 12.9164 13.2756 13.7008 13.2756 13.7309C13.2454 13.7611 13.2454 13.8214 13.2152 13.8516C13.1851 13.8516 13.0644 14.5153 13.2152 14.5153C13.3057 14.5153 13.2756 14.1533 13.3057 14.0628C13.3661 13.8214 13.3962 13.5499 13.4566 13.2784C13.5169 12.9767 13.4566 12.6751 13.4264 12.3734C13.4264 12.2829 13.4264 12.1924 13.4264 12.1019C13.4264 12.0416 13.3661 11.8907 13.3962 11.8304C13.4264 11.7701 13.5773 11.6494 13.6376 11.6192C14.1806 11.1365 18.1023 7.81817 19.8218 8.0595ZM21.3302 14.1834C20.3649 15.8125 19.3392 17.4113 18.3437 19.0403C18.3135 19.0102 18.2833 19.0102 18.2532 18.98C17.4688 20.3979 16.413 21.6347 15.3571 22.8414C14.8443 23.4447 14.3314 24.0481 13.8488 24.6514C13.6074 24.9833 13.3359 25.3151 13.0946 25.6469C12.8532 26.0089 12.5516 26.3408 12.2499 26.6726C11.2242 27.8793 9.9572 29.3273 8.2075 29.2368C7.39299 29.2067 6.63881 28.8145 6.06564 28.2413C5.52263 27.6983 5.25113 26.9441 4.88912 26.3106C4.46678 25.5564 3.98411 24.8023 3.6221 24.0179C3.2601 23.2336 3.07909 22.4794 3.01876 21.6045C2.89809 19.8247 2.71709 18.0448 2.59642 16.2951C2.47575 14.5756 2.44558 12.7656 2.68692 11.046C2.80759 10.2014 3.13943 9.29636 3.47127 8.51201C3.77294 7.75783 4.19528 7.06399 4.73829 6.49081C5.9148 5.28413 7.755 4.56012 9.35386 5.4048C10.108 5.82714 10.7114 6.27964 11.194 7.03382C11.7371 7.81817 12.1292 8.66285 12.4912 9.56786C12.4912 9.53769 12.4912 9.50753 12.4912 9.47736C12.5214 9.62819 12.5817 9.74886 12.6119 9.8997C12.6421 9.9902 12.7929 10.2315 12.7627 10.322C12.7326 10.4125 12.5516 10.5634 12.4912 10.6237C12.4007 10.7142 12.3102 10.8349 12.2197 10.9254C12.0387 11.1366 11.8577 11.3477 11.6466 11.5589C11.4656 11.7399 11.4957 11.7097 11.3147 11.5589C10.651 13.3991 7.90583 13.9119 7.87567 16.084C7.81533 15.9935 7.72483 15.903 7.6645 15.8125C7.936 16.265 7.45333 17.1096 7.45333 17.2303C7.42316 17.3811 7.57399 17.6225 7.57399 17.8035C7.57399 18.1353 7.45333 18.437 7.33266 18.7688C7.18182 19.161 7.03099 19.523 7.09132 19.9453C7.15166 20.3074 7.39299 20.6694 7.72483 20.8202C7.72483 20.8202 7.63433 20.8202 7.57399 20.8202C7.87567 21.0314 8.35834 21.1822 8.56951 21.5442C8.50918 21.5442 8.44884 21.6347 8.35834 21.6347C8.69018 22.2682 9.41419 22.5699 10.0779 22.5397C10.9225 22.5096 11.6466 22.1174 12.4309 21.8157C12.4309 21.9364 12.4007 22.057 12.4007 22.2079C12.6421 21.8157 13.1549 21.6045 13.5471 21.3632C13.9694 21.1219 14.3616 20.8504 14.6633 20.428C14.6934 20.4884 14.7236 20.5185 14.7538 20.5789C14.8141 20.428 14.8443 20.2772 14.9046 20.0962C14.9649 20.1565 15.0253 20.2169 15.0856 20.2772C15.2063 20.3677 15.1459 20.3979 15.2968 20.3074C15.5984 20.1264 15.87 19.9152 16.1113 19.6437C16.594 19.1308 16.9258 18.5577 17.3783 18.0448C17.4386 18.1353 17.499 18.2258 17.5593 18.3163C17.861 17.2001 19.0073 16.7476 19.5805 15.8125C19.5805 15.8426 19.6107 15.8728 19.6107 15.903C20.3649 15.1789 21.0587 14.3644 21.7525 13.5801C21.5715 13.7611 21.4509 13.9723 21.3302 14.1834C20.3347 15.8426 21.4509 13.9723 21.3302 14.1834Z" fill="#5637E3"/>
</svg>
