<svg width="30" height="31" viewBox="0 0 30 31" fill="none" xmlns="http://www.w3.org/2000/svg">
<path d="M27.3633 4.72803H2.63672C1.18283 4.72803 0 5.91086 0 7.36475V22.6449C0 24.0988 1.18283 25.2817 2.63672 25.2817H27.3633C28.8172 25.2817 30 24.0988 30 22.6449V7.36475C30 5.91086 28.8172 4.72803 27.3633 4.72803ZM27.0192 6.48584L26.6672 6.77887L16.0461 15.6231C15.4399 16.1278 14.56 16.1278 13.9539 15.6231L3.33275 6.77887L2.98084 6.48584H27.0192ZM1.75781 7.75486L10.4116 14.9609L1.75781 20.7203V7.75486ZM27.3633 23.5238H2.63672C2.21203 23.5238 1.85684 23.221 1.77545 22.8201L11.8211 16.1345L12.8291 16.9739C13.458 17.4976 14.2291 17.7595 15.0001 17.7595C15.771 17.7595 16.542 17.4976 17.171 16.9739L18.1791 16.1345L28.2246 22.82C28.1432 23.2211 27.788 23.5238 27.3633 23.5238ZM28.2422 20.7203L19.5884 14.961L28.2422 7.75486V20.7203Z" fill="white"/>
</svg>
