<svg width="159" height="66" viewBox="0 0 159 66" fill="none" xmlns="http://www.w3.org/2000/svg">
<path d="M23.1755 42.6662H0.739791V0.739791H21.9971C27.3105 0.739791 31.296 1.70518 34.0432 3.54319L34.0487 3.54675C36.756 5.32382 38.1479 8.762 38.1479 12.1167C38.1479 13.9951 37.6764 15.6461 36.8023 17.0374C35.9264 18.4316 34.6242 19.5995 32.9703 20.5275L31.5571 21.3205L33.082 21.8688C35.3951 22.7006 37.116 23.8758 38.3009 25.4191C39.4752 26.9486 40.0558 28.8426 40.0558 31.0963C40.0558 34.6559 38.6539 37.4144 35.7618 39.4978C32.8499 41.5955 28.7047 42.6662 23.1755 42.6662ZM13.6257 17.3225V18.0623H14.3654H20.5381C21.8323 18.0623 22.9365 17.7885 23.7223 17.1095C24.5292 16.4123 24.8692 15.4039 24.8692 14.2315C24.8692 13.0381 24.5331 12.007 23.733 11.2884C22.9479 10.5833 21.8403 10.2923 20.5381 10.2923H14.3654H13.6257V11.0321V17.3225ZM14.3654 26.0183H13.6257V26.7581V33.4281V34.1679H14.3654H22.5021C23.7885 34.1679 24.8996 33.8575 25.6894 33.112C26.487 32.3592 26.8333 31.2803 26.8333 30.0118C26.8333 28.7965 26.5002 27.7516 25.7004 27.0242C24.9143 26.3092 23.8041 26.0183 22.5021 26.0183H14.3654Z" fill="#0275B4" stroke="#364287" stroke-width="1.47958"/>
<path d="M43.6477 42.6131V1.73979H79.2062V11.0377H57.0202H56.2804V11.7775V17.8432V18.583H57.0202H77.5301V25.7688H57.0202H56.2804V26.5086V32.6285V33.3683H57.0202H78.2698H79.2062V42.6651L43.6477 42.6131Z" fill="#0275B4" stroke="#364287" stroke-width="1.47958"/>
<path d="M97.3841 11.9042H96.6444V12.644V42.6662H83.5964V1.73979H117.545V11.9042H116.07H97.3841Z" fill="#0275B4" stroke="#364287" stroke-width="1.47958"/>
<path d="M142.94 36.477L142.755 36.01H142.252H126.954H126.452L126.266 36.477L123.768 42.7735H111.528L128.522 1.73979H140.899L157.893 42.7735H145.439L142.94 36.477ZM138.495 26.7539H139.558L139.189 25.7571L135.27 15.1824L134.576 13.3104L133.883 15.1824L129.964 25.7571L129.595 26.7539H130.658H138.495Z" fill="#0275B4" stroke="#364287" stroke-width="1.47958"/>
<path d="M2.16186 63.2801C1.49272 62.8825 0.977986 62.3855 0.566202 61.7394C0.205892 61.0436 0 60.2981 0 59.4532C0 58.6083 0.205892 57.8629 0.566202 57.2168C0.977986 56.5707 1.49272 56.024 2.16186 55.6761C2.83101 55.2785 3.60311 55.1294 4.47815 55.1294C5.19877 55.1294 5.81644 55.2785 6.38264 55.527C6.94885 55.7755 7.46358 56.1731 7.82389 56.6204L6.58854 57.7635C6.02233 57.1174 5.35319 56.7695 4.52962 56.7695C4.01489 56.7695 3.55163 56.8689 3.19132 57.1174C2.77954 57.3659 2.4707 57.6641 2.26481 58.0617C2.05892 58.5089 1.9045 58.9562 1.9045 59.4532C1.9045 59.9502 2.00744 60.4472 2.21334 60.8448C2.41923 61.2424 2.72807 61.5903 3.13985 61.7891C3.60311 62.0376 4.01489 62.1867 4.52962 62.1867C5.35319 62.1867 6.02233 61.8388 6.58854 61.1927L7.82389 62.3358C7.4121 62.8328 6.94885 63.1807 6.38264 63.4789C5.81644 63.7274 5.14729 63.8765 4.42667 63.8765C3.60311 63.8268 2.83101 63.628 2.16186 63.2801Z" fill="#364287"/>
<path d="M14.3609 62.1375V63.6782H8.80185V55.279H14.258V56.8197H10.449V58.6585H13.7947V60.1495H10.449V62.0878H14.3609V62.1375Z" fill="#364287"/>
<path d="M21.5157 56.8694H19.1994V63.6782H17.5523V56.8694H15.236V55.279H21.5157V56.8694Z" fill="#364287"/>
<path d="M27.8469 58.7082C28.3101 59.1555 28.5675 59.8513 28.5675 60.7459C28.5675 61.6902 28.3101 62.4357 27.7954 62.9327C27.2807 63.4297 26.56 63.6782 25.5821 63.6782H22.3393V55.279H23.9864V58.0622H25.8394C26.663 58.0125 27.3321 58.2609 27.8469 58.7082ZM26.4571 61.889C26.7145 61.6405 26.8174 61.2926 26.8174 60.7956C26.8174 59.901 26.3542 59.5034 25.4276 59.5034H23.9349V62.2866H25.4276C25.8909 62.2369 26.2512 62.1375 26.4571 61.889Z" fill="#364287"/>
<path d="M32.6853 55.279H38.5017V56.8197H34.3324V58.5591H36.3398C37.2149 58.5591 37.884 58.7579 38.3473 59.2052C38.8105 59.6525 39.0164 60.2489 39.0164 61.0441C39.0164 61.889 38.7591 62.5351 38.2443 62.9824C37.7296 63.4297 37.009 63.6782 36.0825 63.6782H32.6338V55.279H32.6853ZM35.9795 62.2369C36.3913 62.2369 36.7516 62.1375 36.9575 61.9387C37.1634 61.7399 37.3178 61.4417 37.3178 61.0938C37.3178 60.3483 36.8546 60.0004 35.9795 60.0004H34.3324V62.2866H35.9795V62.2369Z" fill="#364287"/>
<path d="M46.1197 62.1375V63.6782H40.5607V55.279H46.0168V56.8197H42.2078V58.6585H45.5535V60.1495H42.2078V62.0878H46.1197V62.1375Z" fill="#364287"/>
<path d="M53.2745 56.8694H50.9582V63.6782H49.3111V56.8694H46.9948V55.279H53.2745V56.8694Z" fill="#364287"/>
<path d="M55.8996 63.2806C55.2819 62.883 54.8187 62.386 54.5098 61.7399C54.1495 61.0938 53.9951 60.3483 53.9951 59.5034C53.9951 58.6585 54.1495 57.913 54.5098 57.2669C54.8702 56.6208 55.3334 56.0742 55.8996 55.7263C56.5173 55.3287 57.1864 55.1796 57.9071 55.1796C58.6792 55.1796 59.3483 55.3784 59.9145 55.7263C60.5322 56.1239 60.9954 56.6208 61.3043 57.2669C61.6646 57.913 61.819 58.6585 61.819 59.5034C61.819 60.3483 61.6646 61.0938 61.3043 61.7399C60.944 62.386 60.4807 62.9327 59.9145 63.2806C59.2968 63.6781 58.6277 63.8272 57.9071 63.8272C57.1864 63.8272 56.5173 63.6284 55.8996 63.2806ZM59.0909 61.8393C59.4512 61.5908 59.7086 61.2926 59.9145 60.895C60.1204 60.4974 60.2233 60.0004 60.2233 59.5034C60.2233 59.0064 60.1204 58.5094 59.9145 58.1118C59.7086 57.7142 59.4512 57.3663 59.0909 57.1675C58.7306 56.919 58.3703 56.8196 57.9585 56.8196C57.5467 56.8196 57.135 56.919 56.8261 57.1675C56.5173 57.416 56.2085 57.7142 56.0026 58.1118C55.7967 58.5094 55.6937 59.0064 55.6937 59.5034C55.6937 60.0004 55.7967 60.4974 56.0026 60.895C56.2085 61.2926 56.4658 61.6405 56.8261 61.8393C57.1864 62.0381 57.5467 62.1872 57.9585 62.1872C58.3703 62.1872 58.7306 62.0381 59.0909 61.8393Z" fill="#364287"/>
<path d="M70.0547 55.279V63.6782H68.4075V60.2489H65.1133V63.6782H63.4661V55.279H65.1133V58.5591H68.4075V55.279H70.0547Z" fill="#364287"/>
<path d="M78.7536 55.279V63.6782H77.1064V60.2489H73.8122V63.6782H72.165V55.279H73.8122V58.5591H77.1064V55.279H78.7536Z" fill="#364287"/>
<path d="M86.3716 58.7082C86.8349 59.1555 87.0922 59.8513 87.0922 60.7459C87.0922 61.6902 86.8349 62.4357 86.3201 62.9327C85.8054 63.4297 85.0848 63.6782 84.1068 63.6782H80.8125V55.279H82.4597V58.0622H84.3127C85.1877 58.0125 85.9083 58.2609 86.3716 58.7082ZM85.0333 61.889C85.2907 61.6405 85.3936 61.2926 85.3936 60.7956C85.3936 59.901 84.9304 59.5034 84.0038 59.5034H82.5111V62.2866H84.0038C84.4156 62.2369 84.7759 62.1375 85.0333 61.889ZM87.9673 55.279H89.6144V63.6782H87.9673V55.279Z" fill="#364287"/>
<path d="M93.0116 55.279L94.5043 57.8137L95.997 55.279H97.953L95.5338 59.3047L98.1589 63.6782H96.2029L94.5043 60.895L92.8572 63.6782H90.9527L93.5263 59.3544L91.1071 55.2293H93.0116V55.279Z" fill="#364287"/>
<path d="M107.681 60.0998C107.939 60.4477 108.042 60.895 108.042 61.3423C108.042 61.8393 107.887 62.2866 107.63 62.6842C107.321 63.0818 106.961 63.3303 106.446 63.5291C105.931 63.7279 105.417 63.8273 104.85 63.8273C104.336 63.8273 103.872 63.7776 103.358 63.6285C102.843 63.4794 102.38 63.2806 101.968 62.9824L102.483 61.5908C102.791 61.8393 103.152 61.9884 103.512 62.0878C103.872 62.1872 104.284 62.2866 104.644 62.2866C105.159 62.2866 105.571 62.1872 105.88 61.9884C106.189 61.7896 106.395 61.4914 106.395 61.0938C106.395 60.7956 106.292 60.5471 106.034 60.398C105.828 60.2489 105.519 60.1495 105.108 60.1495H103.358V58.6585H105.005C105.365 58.6585 105.622 58.5591 105.777 58.41C105.983 58.2609 106.086 58.0124 106.086 57.7639C106.086 57.4161 105.931 57.1676 105.674 57.0185C105.417 56.8694 105.056 56.7203 104.644 56.7203C104.336 56.7203 104.027 56.77 103.666 56.8694C103.306 56.9688 102.997 57.1179 102.688 57.3167L102.174 55.8257C102.946 55.3784 103.769 55.1299 104.644 55.1299C105.211 55.1299 105.725 55.2293 106.189 55.4281C106.652 55.6269 107.064 55.9251 107.321 56.273C107.578 56.6209 107.733 57.0682 107.733 57.5651C107.733 57.9627 107.63 58.3106 107.475 58.6585C107.27 58.9567 107.012 59.2052 106.703 59.404C107.115 59.4537 107.475 59.7022 107.681 60.0998Z" fill="#364287"/>
<path d="M114.527 61.889H111.182L110.564 63.6782H108.865L112.108 55.279H113.755L116.998 63.6782H115.248L114.527 61.889ZM114.013 60.398L112.88 57.1676L111.748 60.398H114.013Z" fill="#364287"/>
<path d="M124.153 60.0501C124.41 60.398 124.513 60.7956 124.513 61.3423C124.513 62.0878 124.256 62.6842 123.792 63.0818C123.329 63.4794 122.609 63.7279 121.734 63.7279H118.182V55.279H121.528C122.351 55.279 123.02 55.4778 123.484 55.8257C123.947 56.2233 124.204 56.7203 124.204 57.4161C124.204 57.8137 124.101 58.2113 123.947 58.5094C123.792 58.8076 123.535 59.0561 123.175 59.2549C123.587 59.4537 123.947 59.7022 124.153 60.0501ZM119.829 58.7579H121.373C121.734 58.7579 121.991 58.6585 122.197 58.5094C122.403 58.3603 122.454 58.0622 122.454 57.764C122.454 57.4161 122.351 57.1676 122.145 57.0185C121.939 56.8197 121.682 56.77 121.322 56.77H119.778V58.7579H119.829ZM122.814 61.1435C122.814 60.4477 122.403 60.0998 121.631 60.0998H119.778V62.2369H121.631C122.454 62.2369 122.814 61.889 122.814 61.1435Z" fill="#364287"/>
<path d="M127.498 63.2806C126.881 62.883 126.418 62.386 126.109 61.7399C125.748 61.0938 125.594 60.3483 125.594 59.5034C125.594 58.6585 125.748 57.913 126.109 57.2669C126.469 56.6208 126.932 56.0742 127.498 55.7263C128.116 55.3287 128.785 55.1796 129.506 55.1796C130.278 55.1796 130.947 55.3784 131.513 55.7263C132.131 56.1239 132.594 56.6208 132.903 57.2669C133.263 57.913 133.418 58.6585 133.418 59.5034C133.418 60.3483 133.263 61.0938 132.903 61.7399C132.543 62.386 132.08 62.9327 131.513 63.2806C130.896 63.6781 130.227 63.8272 129.506 63.8272C128.785 63.8272 128.116 63.6284 127.498 63.2806ZM130.69 61.8393C131.05 61.5908 131.307 61.2926 131.513 60.895C131.719 60.4974 131.822 60.0004 131.822 59.5034C131.822 59.0064 131.719 58.5094 131.513 58.1118C131.307 57.7142 131.05 57.3663 130.69 57.1675C130.329 56.919 129.969 56.8196 129.557 56.8196C129.146 56.8196 128.734 56.919 128.425 57.1675C128.116 57.416 127.807 57.7142 127.601 58.1118C127.395 58.5094 127.293 59.0064 127.293 59.5034C127.293 60.0004 127.395 60.4974 127.601 60.895C127.807 61.2926 128.065 61.6405 128.425 61.8393C128.785 62.0381 129.146 62.1872 129.557 62.1872C129.969 62.1872 130.381 62.0381 130.69 61.8393Z" fill="#364287"/>
<path d="M142.271 62.0878V65.4176H140.727V63.6782H135.631V65.4176H134.087V62.0878H134.396C134.808 62.0878 135.116 61.6902 135.322 60.9944C135.477 60.2489 135.631 59.2549 135.631 57.9131L135.734 55.279H141.293V62.0878H142.271ZM136.918 60.5968C136.815 61.2926 136.661 61.7896 136.403 62.0878H139.646V56.8694H137.175L137.124 58.0622C137.072 59.0561 137.021 59.901 136.918 60.5968Z" fill="#364287"/>
<path d="M145.102 63.2806C144.485 62.883 144.021 62.386 143.712 61.7399C143.352 61.0938 143.198 60.3483 143.198 59.5034C143.198 58.6585 143.352 57.913 143.712 57.2669C144.073 56.6208 144.536 56.0742 145.102 55.7263C145.72 55.3287 146.389 55.1796 147.11 55.1796C147.882 55.1796 148.551 55.3784 149.117 55.7263C149.735 56.1239 150.198 56.6208 150.507 57.2669C150.867 57.913 151.022 58.6585 151.022 59.5034C151.022 60.3483 150.867 61.0938 150.507 61.7399C150.147 62.386 149.683 62.9327 149.117 63.2806C148.499 63.6781 147.83 63.8272 147.11 63.8272C146.389 63.8272 145.72 63.6284 145.102 63.2806ZM148.294 61.8393C148.654 61.5908 148.911 61.2926 149.117 60.895C149.323 60.4974 149.426 60.0004 149.426 59.5034C149.426 59.0064 149.323 58.5094 149.117 58.1118C148.911 57.7142 148.654 57.3663 148.294 57.1675C147.933 56.919 147.573 56.8196 147.161 56.8196C146.749 56.8196 146.338 56.919 146.029 57.1675C145.72 57.416 145.36 57.6645 145.154 58.0621C144.948 58.4597 144.845 58.9567 144.845 59.4537C144.845 59.9507 144.948 60.4477 145.154 60.8453C145.36 61.2429 145.617 61.5908 145.977 61.7896C146.338 61.9884 146.698 62.1375 147.11 62.1375C147.573 62.1872 147.933 62.0381 148.294 61.8393Z" fill="#364287"/>
<path d="M158.64 60.0501C158.897 60.398 159 60.7956 159 61.3423C159 62.0878 158.743 62.6842 158.279 63.0818C157.816 63.4794 157.095 63.7279 156.22 63.7279H152.669V55.279H156.015C156.838 55.279 157.507 55.4778 157.971 55.8257C158.434 56.1736 158.691 56.7203 158.691 57.4161C158.691 57.8137 158.588 58.2113 158.434 58.5094C158.279 58.8076 158.022 59.0561 157.662 59.2549C158.073 59.4537 158.434 59.7022 158.64 60.0501ZM154.316 58.7579H155.86C156.22 58.7579 156.478 58.6585 156.684 58.5094C156.89 58.3603 156.941 58.0622 156.941 57.764C156.941 57.4161 156.838 57.1676 156.632 57.0185C156.426 56.8197 156.169 56.77 155.809 56.77H154.264V58.7579H154.316ZM157.301 61.1435C157.301 60.4477 156.89 60.0998 156.118 60.0998H154.264V62.2369H156.118C156.941 62.2369 157.301 61.889 157.301 61.1435Z" fill="#364287"/>
</svg>
