<svg width="20" height="21" viewBox="0 0 20 21" fill="none" xmlns="http://www.w3.org/2000/svg">
<path d="M18.1423 14.4813V17.1911C18.1433 17.4426 18.0941 17.6916 17.998 17.9221C17.9018 18.1526 17.7607 18.3595 17.5839 18.5296C17.407 18.6996 17.1981 18.8291 16.9707 18.9097C16.7433 18.9903 16.5024 19.0202 16.2633 18.9976C13.611 18.6955 11.0632 17.7458 8.82477 16.2246C6.74218 14.8378 4.97651 12.9875 3.65315 10.8051C2.19645 8.44877 1.28992 5.76595 1.007 2.97404C0.985457 2.72426 1.01378 2.47252 1.09017 2.23485C1.16656 1.99717 1.28934 1.77877 1.45069 1.59354C1.61204 1.40832 1.80843 1.26033 2.02735 1.15899C2.24627 1.05766 2.48293 1.00521 2.72225 1.00497H5.30807C5.72637 1.00066 6.1319 1.15588 6.44907 1.44172C6.76623 1.72755 6.9734 2.12449 7.03194 2.55855C7.14108 3.42572 7.34349 4.27717 7.6353 5.09666C7.75127 5.41995 7.77637 5.7713 7.70762 6.10908C7.63888 6.44686 7.47917 6.75692 7.24743 7.0025L6.15277 8.14961C7.37978 10.4109 9.16649 12.2833 11.3244 13.5691L12.4191 12.4219C12.6534 12.1791 12.9493 12.0117 13.2716 11.9397C13.594 11.8677 13.9292 11.894 14.2377 12.0155C15.0198 12.3213 15.8323 12.5334 16.6598 12.6478C17.0785 12.7097 17.4609 12.9307 17.7342 13.2687C18.0076 13.6068 18.1528 14.0384 18.1423 14.4813Z" stroke="white" stroke-width="2" stroke-linecap="round" stroke-linejoin="round"/>
</svg>
